<svg xmlns="http://www.w3.org/2000/svg" width="1567" height="162" viewBox="0 0 1567 162">
<rect x="54" y="137" width="1447" height="19" rx="0" fill="#084f80" stroke="#33383d" stroke-width="1" stroke-linejoin="round" stroke-linecap="round"/>
<path d="M 57 136 L 1500 136" fill="none" stroke="#dec130" stroke-width="2" stroke-linejoin="round" stroke-linecap="round"/>
<path d="M 54 137 L 54 157" fill="none" stroke="#e8ebed" stroke-width="2" stroke-linejoin="round" stroke-linecap="round"/>
<path d="M 297 137 L 297 157" fill="none" stroke="#e8ebed" stroke-width="2" stroke-linejoin="round" stroke-linecap="round"/>
<path d="M 540 137 L 540 157" fill="none" stroke="#e8ebed" stroke-width="2" stroke-linejoin="round" stroke-linecap="round"/>
<path d="M 782 137 L 782 157" fill="none" stroke="#e8ebed" stroke-width="2" stroke-linejoin="round" stroke-linecap="round"/>
<path d="M 1026 137 L 1026 157" fill="none" stroke="#e8ebed" stroke-width="2" stroke-linejoin="round" stroke-linecap="round"/>
<path d="M 1268 137 L 1268 157" fill="none" stroke="#e8ebed" stroke-width="2" stroke-linejoin="round" stroke-linecap="round"/>
<path d="M 1501 137 L 1501 157" fill="none" stroke="#e8ebed" stroke-width="2" stroke-linejoin="round" stroke-linecap="round"/>
<ellipse cx="176" cy="148" rx="14" ry="8" fill="#d71c1e" stroke="none"/>
<rect x="178" y="144" width="1" height="3.5" rx="0" fill="#ffffff" stroke="none"/>
<rect x="178" y="148.5" width="1" height="3.5" rx="0" fill="#ffffff" stroke="none"/>
<ellipse cx="421" cy="148" rx="14" ry="8" fill="#d71c1e" stroke="none"/>
<rect x="419" y="143" width="4" height="1" rx="0" fill="#ffffff" stroke="none"/>
<rect x="423" y="144" width="1" height="3.5" rx="0" fill="#ffffff" stroke="none"/>
<rect x="419" y="152" width="4" height="1" rx="0" fill="#ffffff" stroke="none"/>
<rect x="418" y="148.5" width="1" height="3.5" rx="0" fill="#ffffff" stroke="none"/>
<rect x="419" y="147.5" width="4" height="1" rx="0" fill="#ffffff" stroke="none"/>
<ellipse cx="663" cy="148" rx="14" ry="8" fill="#d71c1e" stroke="none"/>
<rect x="661" y="143" width="4" height="1" rx="0" fill="#ffffff" stroke="none"/>
<rect x="665" y="144" width="1" height="3.5" rx="0" fill="#ffffff" stroke="none"/>
<rect x="665" y="148.5" width="1" height="3.5" rx="0" fill="#ffffff" stroke="none"/>
<rect x="661" y="152" width="4" height="1" rx="0" fill="#ffffff" stroke="none"/>
<rect x="661" y="147.5" width="4" height="1" rx="0" fill="#ffffff" stroke="none"/>
<ellipse cx="903" cy="148" rx="14" ry="8" fill="#d71c1e" stroke="none"/>
<rect x="905" y="144" width="1" height="3.5" rx="0" fill="#ffffff" stroke="none"/>
<rect x="905" y="148.5" width="1" height="3.5" rx="0" fill="#ffffff" stroke="none"/>
<rect x="900" y="144" width="1" height="3.5" rx="0" fill="#ffffff" stroke="none"/>
<rect x="901" y="147.5" width="4" height="1" rx="0" fill="#ffffff" stroke="none"/>
<ellipse cx="1143" cy="148" rx="14" ry="8" fill="#d71c1e" stroke="none"/>
<rect x="1141" y="143" width="4" height="1" rx="0" fill="#ffffff" stroke="none"/>
<rect x="1145" y="148.5" width="1" height="3.5" rx="0" fill="#ffffff" stroke="none"/>
<rect x="1141" y="152" width="4" height="1" rx="0" fill="#ffffff" stroke="none"/>
<rect x="1140" y="144" width="1" height="3.5" rx="0" fill="#ffffff" stroke="none"/>
<rect x="1141" y="147.5" width="4" height="1" rx="0" fill="#ffffff" stroke="none"/>
<ellipse cx="1383" cy="148" rx="14" ry="8" fill="#d71c1e" stroke="none"/>
<rect x="1381" y="143" width="4" height="1" rx="0" fill="#ffffff" stroke="none"/>
<rect x="1385" y="148.5" width="1" height="3.5" rx="0" fill="#ffffff" stroke="none"/>
<rect x="1381" y="152" width="4" height="1" rx="0" fill="#ffffff" stroke="none"/>
<rect x="1380" y="148.5" width="1" height="3.5" rx="0" fill="#ffffff" stroke="none"/>
<rect x="1380" y="144" width="1" height="3.5" rx="0" fill="#ffffff" stroke="none"/>
<rect x="1381" y="147.5" width="4" height="1" rx="0" fill="#ffffff" stroke="none"/>
<rect x="546" y="94" width="537" height="26" rx="0" fill="#25292d" stroke="#33383d" stroke-width="1" stroke-linejoin="round" stroke-linecap="round"/>
<rect x="667" y="25" width="8" height="68" rx="0" fill="#42484e" stroke="#33383d" stroke-width="1" stroke-linejoin="round" stroke-linecap="round"/>
<rect x="679" y="23" width="117" height="66" rx="0" fill="#c9cdd1" stroke="#33383d" stroke-width="1" stroke-linejoin="round" stroke-linecap="round"/>
<rect x="680" y="24" width="116" height="12" rx="0" fill="#e8ebed" stroke="none"/>
<path d="M 738 24 L 738 87" fill="none" stroke="#92999f" stroke-width="1" stroke-linejoin="round" stroke-linecap="round"/>
<rect x="743" y="96" width="87" height="22" rx="0" fill="#c9cdd1" stroke="#33383d" stroke-width="1" stroke-linejoin="round" stroke-linecap="round"/>
<path d="M 508 101 L 514 78 L 548 62 L 583 61 L 591 34 L 646 31 L 659 44 L 659 95 L 634 104 Z" fill="#ffffff" stroke="#33383d" stroke-width="1" stroke-linejoin="round" stroke-linecap="round"/>
<path d="M 589 43 L 644 38 L 649 59 L 584 59 Z" fill="#648695" stroke="#33383d" stroke-width="1" stroke-linejoin="round" stroke-linecap="round"/>
<path d="M 603 45 L 642 42 L 643 56 L 600 56 Z" fill="#264d65" stroke="none"/>
<path d="M 596 62 L 596 91" fill="none" stroke="#92999f" stroke-width="1" stroke-linejoin="round" stroke-linecap="round"/>
<rect x="612" y="99" width="45" height="16" rx="0" fill="#c9cdd1" stroke="#33383d" stroke-width="1" stroke-linejoin="round" stroke-linecap="round"/>
<path d="M 515 88 L 528 88 L 524 95 L 512 95 Z" fill="#e2a437" stroke="#33383d" stroke-width="0.6" stroke-linejoin="round" stroke-linecap="round"/>
<rect x="564" y="62" width="14" height="6" rx="0" fill="#25292d" stroke="none"/>
<ellipse cx="624" cy="78" rx="8" ry="5" fill="#086caf" stroke="none"/>
<rect x="987" y="49" width="66" height="69" rx="0" fill="#25292d" stroke="#33383d" stroke-width="1" stroke-linejoin="round" stroke-linecap="round"/>
<path d="M 987 57 L 1038 25 L 1070 26 L 1072 43 L 1008 76 Z" fill="#e12822" stroke="#33383d" stroke-width="1" stroke-linejoin="round" stroke-linecap="round"/>
<path d="M 1004 53 L 1044 31 L 1065 32 L 1067 38 L 1010 68 Z" fill="#b50f15" stroke="none"/>
<path d="M 1039 27 L 1070 27" fill="none" stroke="#25292d" stroke-width="4" stroke-linejoin="round" stroke-linecap="round"/>
<path d="M 1068 41 L 1068 82" fill="none" stroke="#25292d" stroke-width="2" stroke-linejoin="round" stroke-linecap="round"/>
<rect x="1044" y="62" width="24" height="29" rx="0" fill="#d7b622" stroke="#33383d" stroke-width="1" stroke-linejoin="round" stroke-linecap="round"/>
<ellipse cx="565" cy="115" rx="31" ry="22" fill="#25292d" stroke="#33383d" stroke-width="1" stroke-linejoin="round" stroke-linecap="round"/>
<ellipse cx="565" cy="115" rx="20" ry="16" fill="#c9cdd1" stroke="#33383d" stroke-width="1" stroke-linejoin="round" stroke-linecap="round"/>
<ellipse cx="565" cy="115" rx="7" ry="6" fill="#92999f" stroke="#33383d" stroke-width="0.5" stroke-linejoin="round" stroke-linecap="round"/>
<ellipse cx="579.0" cy="115.0" rx="1.8" ry="1.5" fill="#42484e" stroke="none"/>
<ellipse cx="574.8994949366116" cy="122.07106781186548" rx="1.8" ry="1.5" fill="#42484e" stroke="none"/>
<ellipse cx="565.0" cy="125.0" rx="1.8" ry="1.5" fill="#42484e" stroke="none"/>
<ellipse cx="555.1005050633884" cy="122.07106781186548" rx="1.8" ry="1.5" fill="#42484e" stroke="none"/>
<ellipse cx="551.0" cy="115.0" rx="1.8" ry="1.5" fill="#42484e" stroke="none"/>
<ellipse cx="555.1005050633884" cy="107.92893218813452" rx="1.8" ry="1.5" fill="#42484e" stroke="none"/>
<ellipse cx="565.0" cy="105.0" rx="1.8" ry="1.5" fill="#42484e" stroke="none"/>
<ellipse cx="574.8994949366116" cy="107.92893218813452" rx="1.8" ry="1.5" fill="#42484e" stroke="none"/>
<ellipse cx="710" cy="115" rx="31" ry="22" fill="#25292d" stroke="#33383d" stroke-width="1" stroke-linejoin="round" stroke-linecap="round"/>
<ellipse cx="710" cy="115" rx="20" ry="16" fill="#c9cdd1" stroke="#33383d" stroke-width="1" stroke-linejoin="round" stroke-linecap="round"/>
<ellipse cx="710" cy="115" rx="7" ry="6" fill="#92999f" stroke="#33383d" stroke-width="0.5" stroke-linejoin="round" stroke-linecap="round"/>
<ellipse cx="724.0" cy="115.0" rx="1.8" ry="1.5" fill="#42484e" stroke="none"/>
<ellipse cx="719.8994949366116" cy="122.07106781186548" rx="1.8" ry="1.5" fill="#42484e" stroke="none"/>
<ellipse cx="710.0" cy="125.0" rx="1.8" ry="1.5" fill="#42484e" stroke="none"/>
<ellipse cx="700.1005050633884" cy="122.07106781186548" rx="1.8" ry="1.5" fill="#42484e" stroke="none"/>
<ellipse cx="696.0" cy="115.0" rx="1.8" ry="1.5" fill="#42484e" stroke="none"/>
<ellipse cx="700.1005050633884" cy="107.92893218813452" rx="1.8" ry="1.5" fill="#42484e" stroke="none"/>
<ellipse cx="710.0" cy="105.0" rx="1.8" ry="1.5" fill="#42484e" stroke="none"/>
<ellipse cx="719.8994949366116" cy="107.92893218813452" rx="1.8" ry="1.5" fill="#42484e" stroke="none"/>
<ellipse cx="919" cy="115" rx="31" ry="22" fill="#25292d" stroke="#33383d" stroke-width="1" stroke-linejoin="round" stroke-linecap="round"/>
<ellipse cx="919" cy="115" rx="20" ry="16" fill="#c9cdd1" stroke="#33383d" stroke-width="1" stroke-linejoin="round" stroke-linecap="round"/>
<ellipse cx="919" cy="115" rx="7" ry="6" fill="#92999f" stroke="#33383d" stroke-width="0.5" stroke-linejoin="round" stroke-linecap="round"/>
<ellipse cx="933.0" cy="115.0" rx="1.8" ry="1.5" fill="#42484e" stroke="none"/>
<ellipse cx="928.8994949366116" cy="122.07106781186548" rx="1.8" ry="1.5" fill="#42484e" stroke="none"/>
<ellipse cx="919.0" cy="125.0" rx="1.8" ry="1.5" fill="#42484e" stroke="none"/>
<ellipse cx="909.1005050633884" cy="122.07106781186548" rx="1.8" ry="1.5" fill="#42484e" stroke="none"/>
<ellipse cx="905.0" cy="115.0" rx="1.8" ry="1.5" fill="#42484e" stroke="none"/>
<ellipse cx="909.1005050633884" cy="107.92893218813452" rx="1.8" ry="1.5" fill="#42484e" stroke="none"/>
<ellipse cx="919.0" cy="105.0" rx="1.8" ry="1.5" fill="#42484e" stroke="none"/>
<ellipse cx="928.8994949366116" cy="107.92893218813452" rx="1.8" ry="1.5" fill="#42484e" stroke="none"/>
<ellipse cx="1002" cy="115" rx="31" ry="22" fill="#25292d" stroke="#33383d" stroke-width="1" stroke-linejoin="round" stroke-linecap="round"/>
<ellipse cx="1002" cy="115" rx="20" ry="16" fill="#c9cdd1" stroke="#33383d" stroke-width="1" stroke-linejoin="round" stroke-linecap="round"/>
<ellipse cx="1002" cy="115" rx="7" ry="6" fill="#92999f" stroke="#33383d" stroke-width="0.5" stroke-linejoin="round" stroke-linecap="round"/>
<ellipse cx="1016.0" cy="115.0" rx="1.8" ry="1.5" fill="#42484e" stroke="none"/>
<ellipse cx="1011.8994949366116" cy="122.07106781186548" rx="1.8" ry="1.5" fill="#42484e" stroke="none"/>
<ellipse cx="1002.0" cy="125.0" rx="1.8" ry="1.5" fill="#42484e" stroke="none"/>
<ellipse cx="992.1005050633884" cy="122.07106781186548" rx="1.8" ry="1.5" fill="#42484e" stroke="none"/>
<ellipse cx="988.0" cy="115.0" rx="1.8" ry="1.5" fill="#42484e" stroke="none"/>
<ellipse cx="992.1005050633884" cy="107.92893218813452" rx="1.8" ry="1.5" fill="#42484e" stroke="none"/>
<ellipse cx="1002.0" cy="105.0" rx="1.8" ry="1.5" fill="#42484e" stroke="none"/>
<ellipse cx="1011.8994949366116" cy="107.92893218813452" rx="1.8" ry="1.5" fill="#42484e" stroke="none"/>
<rect x="814" y="94" width="47" height="12" rx="0" fill="#42484e" stroke="#33383d" stroke-width="0.5" stroke-linejoin="round" stroke-linecap="round"/>
<rect x="873" y="94" width="47" height="12" rx="0" fill="#42484e" stroke="#33383d" stroke-width="0.5" stroke-linejoin="round" stroke-linecap="round"/>
<rect x="932" y="94" width="47" height="12" rx="0" fill="#42484e" stroke="#33383d" stroke-width="0.5" stroke-linejoin="round" stroke-linecap="round"/>
<rect x="1448" y="80" width="67" height="55" rx="0" fill="#8aaec7" stroke="#33383d" stroke-width="1" stroke-linejoin="round" stroke-linecap="round"/>
<path d="M 1448 80 L 1461 77 L 1520 77 L 1515 80 Z" fill="#e8ebed" stroke="#33383d" stroke-width="0.7" stroke-linejoin="round" stroke-linecap="round"/>
<rect x="1443" y="101" width="6" height="35" rx="0" fill="#e9bd16" stroke="none"/>
<rect x="1524" y="101" width="6" height="35" rx="0" fill="#e9bd16" stroke="none"/>
<rect x="1423" y="40" width="78" height="15" rx="0" fill="#25292d" stroke="#33383d" stroke-width="0.5" stroke-linejoin="round" stroke-linecap="round"/>
<rect x="1430.08" y="43" width="6.84" height="1.08" rx="0" fill="#f32631" stroke="none"/>
<rect x="1436.92" y="44.08" width="1.08" height="2.88" rx="0" fill="#f32631" stroke="none"/>
<rect x="1430.08" y="50.92" width="6.84" height="1.08" rx="0" fill="#f32631" stroke="none"/>
<rect x="1429" y="48.04" width="1.08" height="2.88" rx="0" fill="#f32631" stroke="none"/>
<rect x="1430.08" y="46.96" width="6.84" height="1.08" rx="0" fill="#f32631" stroke="none"/>
<rect x="1443.08" y="43" width="6.84" height="1.08" rx="0" fill="#f32631" stroke="none"/>
<rect x="1449.92" y="48.04" width="1.08" height="2.88" rx="0" fill="#f32631" stroke="none"/>
<rect x="1443.08" y="50.92" width="6.84" height="1.08" rx="0" fill="#f32631" stroke="none"/>
<rect x="1442" y="44.08" width="1.08" height="2.88" rx="0" fill="#f32631" stroke="none"/>
<rect x="1443.08" y="46.96" width="6.84" height="1.08" rx="0" fill="#f32631" stroke="none"/>
<rect x="1456.08" y="43" width="6.84" height="1.08" rx="0" fill="#f32631" stroke="none"/>
<rect x="1462.92" y="44.08" width="1.08" height="2.88" rx="0" fill="#f32631" stroke="none"/>
<rect x="1462.92" y="48.04" width="1.08" height="2.88" rx="0" fill="#f32631" stroke="none"/>
<rect x="1456.08" y="50.92" width="6.84" height="1.08" rx="0" fill="#f32631" stroke="none"/>
<rect x="1455" y="48.04" width="1.08" height="2.88" rx="0" fill="#f32631" stroke="none"/>
<rect x="1455" y="44.08" width="1.08" height="2.88" rx="0" fill="#f32631" stroke="none"/>
<rect x="1469.08" y="43" width="6.84" height="1.08" rx="0" fill="#f32631" stroke="none"/>
<rect x="1475.92" y="44.08" width="1.08" height="2.88" rx="0" fill="#f32631" stroke="none"/>
<rect x="1475.92" y="48.04" width="1.08" height="2.88" rx="0" fill="#f32631" stroke="none"/>
<rect x="1469.08" y="50.92" width="6.84" height="1.08" rx="0" fill="#f32631" stroke="none"/>
<rect x="1468" y="48.04" width="1.08" height="2.88" rx="0" fill="#f32631" stroke="none"/>
<rect x="1468" y="44.08" width="1.08" height="2.88" rx="0" fill="#f32631" stroke="none"/>
<rect x="1482.08" y="43" width="6.84" height="1.08" rx="0" fill="#f32631" stroke="none"/>
<rect x="1488.92" y="44.08" width="1.08" height="2.88" rx="0" fill="#f32631" stroke="none"/>
<rect x="1488.92" y="48.04" width="1.08" height="2.88" rx="0" fill="#f32631" stroke="none"/>
<rect x="1482.08" y="50.92" width="6.84" height="1.08" rx="0" fill="#f32631" stroke="none"/>
<rect x="1481" y="48.04" width="1.08" height="2.88" rx="0" fill="#f32631" stroke="none"/>
<rect x="1481" y="44.08" width="1.08" height="2.88" rx="0" fill="#f32631" stroke="none"/>
<path d="M 1463 18 L 1463 40" fill="none" stroke="#92999f" stroke-width="3" stroke-linejoin="round" stroke-linecap="round"/>
</svg>